<svg width="34" height="38" viewBox="0 0 34 38" fill="none" xmlns="http://www.w3.org/2000/svg">
<g clip-path="url(#clip0_96_292)">
<path d="M31.1631 12.9735H19.7678V9.14973C19.7678 7.4041 18.4981 5.9791 16.9309 5.9791L2.83687 5.97316C1.275 5.96723 0 7.39223 0 9.13785V19.2257C0 20.9713 1.26969 22.3963 2.83687 22.3963H3.36281V24.1775C3.36281 24.4922 3.51688 24.7772 3.76656 24.9257C3.88872 24.9989 4.02637 25.0337 4.16483 25.0264C4.30329 25.0191 4.43738 24.9699 4.55281 24.8841L7.88375 22.3963H14.2375V26.226C14.2375 27.9716 15.5072 29.3907 17.0691 29.3907H26.1216L29.4525 31.8844C29.5679 31.9702 29.702 32.0194 29.8405 32.0267C29.9789 32.034 30.1166 31.9992 30.2387 31.926C30.4884 31.7775 30.6425 31.4925 30.6425 31.1778V29.3966H31.1684C32.7356 29.3966 34.0053 27.9775 34.0106 26.2319V16.15C34 14.3985 32.725 12.9735 31.1631 12.9735ZM15.0184 20.6922H7.64469C7.49594 20.6922 7.34719 20.7397 7.21969 20.8347L4.88219 22.5803V21.5413C4.88219 21.0722 4.54219 20.6922 4.1225 20.6922H2.83687C2.11438 20.6922 1.52469 20.0332 1.52469 19.2257V9.13785C1.52469 8.33035 2.11438 7.67129 2.83687 7.67129L16.9309 7.67723C17.6534 7.67723 18.2431 8.33629 18.2431 9.14379V19.2257C18.2431 20.0332 17.6534 20.6922 16.9309 20.6922H15.0184ZM32.4753 26.2319C32.4753 27.0394 31.8856 27.6985 31.1578 27.6985H29.8722C29.4525 27.6985 29.1125 28.0785 29.1125 28.5475V29.5866L26.775 27.835C26.6475 27.74 26.5041 27.6925 26.35 27.6925H17.0637C16.3412 27.6925 15.7516 27.0335 15.7516 26.226V22.3963H16.9256C18.4875 22.3963 19.7625 20.9772 19.7625 19.2257V14.6657H31.1578C31.5072 14.6657 31.8423 14.8208 32.0894 15.0969C32.3365 15.3731 32.4753 15.7476 32.4753 16.1382V26.2319Z" fill="black"/>
<path d="M12.41 16.6012C12.3762 16.5682 12.3363 16.5438 12.2931 16.53C12.2453 16.5122 12.1763 16.4825 12.0913 16.4409C12.0063 16.3994 11.9053 16.34 11.7778 16.2569C11.6556 16.1737 11.5122 16.055 11.3528 15.9006C11.4591 15.7819 11.5547 15.6453 11.6344 15.4909C11.7194 15.3366 11.7885 15.1644 11.8416 14.9744C11.9 14.7844 11.9425 14.5825 11.9691 14.3628C12.001 14.1431 12.0116 13.9056 12.0116 13.6562C12.0116 13.1694 11.9585 12.7537 11.8575 12.3975C11.7566 12.0412 11.6078 11.7503 11.406 11.5187C11.2094 11.2872 10.965 11.115 10.6781 11.0022C10.3913 10.8894 10.0566 10.8359 9.68471 10.8359C9.28627 10.8359 8.93564 10.9013 8.63814 11.0378C8.33533 11.1744 8.08564 11.3703 7.87846 11.6197C7.67658 11.875 7.52252 12.1778 7.41627 12.54C7.31533 12.9022 7.26221 13.3119 7.26221 13.7631C7.26221 14.2619 7.31002 14.6953 7.40564 15.0575C7.50127 15.4197 7.65002 15.7166 7.84127 15.9541C8.03252 16.1856 8.27689 16.3578 8.56908 16.4706C8.86127 16.5834 9.20127 16.6369 9.58908 16.6369C9.79627 16.6369 9.98221 16.6131 10.1522 16.5716C10.3222 16.5241 10.4656 16.4766 10.5825 16.4112C10.726 16.5953 10.88 16.7556 11.0447 16.8922C11.2094 17.0347 11.3741 17.1534 11.5335 17.2484C11.6928 17.3434 11.8416 17.4206 11.9797 17.4741C12.1178 17.5275 12.2294 17.5512 12.3144 17.5512C12.3356 17.5512 12.3569 17.5453 12.3728 17.5334C12.3888 17.5216 12.41 17.5037 12.4206 17.4681C12.439 17.4208 12.4515 17.3708 12.4578 17.3197C12.4685 17.2544 12.4738 17.1712 12.4738 17.0703C12.4738 16.9397 12.4685 16.8387 12.4525 16.7675C12.4366 16.6962 12.4419 16.6309 12.41 16.6012ZM10.8853 14.4816C10.8428 14.7191 10.7685 14.9328 10.6675 15.1109C10.5666 15.2891 10.4285 15.4316 10.2585 15.5325C10.0885 15.6394 9.88127 15.6869 9.63158 15.6869C9.38189 15.6869 9.17471 15.6394 9.01002 15.5503C8.84533 15.4613 8.71252 15.3247 8.61689 15.1525C8.51147 14.96 8.44106 14.7461 8.40971 14.5231C8.36485 14.2489 8.3435 13.9706 8.34596 13.6919C8.34596 13.4306 8.36721 13.1872 8.40971 12.9497C8.45221 12.7122 8.52658 12.5103 8.62752 12.3322C8.72846 12.1541 8.86658 12.0175 9.03658 11.9106C9.20658 11.8037 9.41377 11.7562 9.66346 11.7562C9.91314 11.7562 10.1203 11.8038 10.285 11.8988C10.4497 11.9938 10.5825 12.1244 10.6835 12.2966C10.7844 12.4687 10.8535 12.6766 10.896 12.9141C10.9385 13.1516 10.9597 13.4188 10.9597 13.7097C10.9544 13.9828 10.9278 14.2381 10.8853 14.4816ZM24.8519 18.3944C24.84 18.3453 24.8202 18.299 24.7935 18.2578C24.7722 18.2222 24.7297 18.1984 24.6766 18.1806C24.6038 18.159 24.5287 18.149 24.4535 18.1509C24.3578 18.145 24.2303 18.145 24.0656 18.145C23.9275 18.145 23.816 18.145 23.731 18.1509C23.646 18.1569 23.5822 18.1688 23.5344 18.1806C23.4866 18.1984 23.4494 18.2222 23.4281 18.2519C23.4069 18.2816 23.3856 18.3231 23.3697 18.3766L21.7335 23.6372C21.7016 23.7441 21.6803 23.8272 21.6697 23.8925C21.6591 23.9578 21.6697 24.0053 21.6963 24.0409C21.7228 24.0766 21.7706 24.1003 21.845 24.1062C21.9141 24.1181 22.015 24.1181 22.1425 24.1181C22.2594 24.1181 22.355 24.1122 22.4294 24.1062C22.5038 24.1003 22.5569 24.0884 22.5994 24.0706C22.6366 24.0528 22.6685 24.0291 22.6844 23.9994C22.7027 23.966 22.717 23.9301 22.7269 23.8925L23.0616 22.7347H25.0538L25.4097 23.9281C25.4203 23.9697 25.4363 23.9994 25.4522 24.0231C25.4681 24.0469 25.4947 24.0647 25.5372 24.0825C25.5797 24.0944 25.6381 24.1063 25.7178 24.1122C25.7975 24.1181 25.9038 24.1181 26.0419 24.1181C26.1747 24.1181 26.281 24.1122 26.3553 24.1062C26.4297 24.1003 26.4828 24.0766 26.5147 24.0469C26.5466 24.0172 26.5572 23.9697 26.5466 23.9044C26.5325 23.8153 26.5112 23.7279 26.4828 23.6431L24.8519 18.3944ZM23.306 21.8203L24.055 19.3028H24.0603L24.8094 21.8203H23.306Z" fill="black"/>
</g>
<defs>
<clipPath id="clip0_96_292">
<rect width="34" height="38" fill="white"/>
</clipPath>
</defs>
</svg>
