<svg width="24" height="29" viewBox="0 0 24 29" fill="none" xmlns="http://www.w3.org/2000/svg">
<path fill-rule="evenodd" clip-rule="evenodd" d="M22.9101 8.57285L22.1321 7.04272C21.4739 5.74799 20.0152 5.30135 18.8712 6.04424C18.3267 6.4078 17.6769 6.51094 17.0652 6.33093C16.4535 6.15092 15.93 5.70254 15.6103 5.08467C15.4047 4.69194 15.2942 4.24462 15.29 3.78795C15.3085 3.05579 15.0648 2.3463 14.6143 1.82109C14.1638 1.29589 13.545 0.999699 12.8987 1H11.3312C10.698 1 10.0909 1.28594 9.64429 1.79456C9.19765 2.30319 8.94826 2.99257 8.95131 3.71015C8.93254 5.1917 7.86739 6.38154 6.56 6.38139C6.15706 6.37665 5.76237 6.2514 5.41584 6.01831C4.27187 5.27541 2.81319 5.72206 2.15497 7.01678L1.31973 8.57285C0.662307 9.86595 1.05104 11.5181 2.18929 12.2685C2.92917 12.7526 3.38496 13.6473 3.38496 14.6156C3.38496 15.5838 2.92917 16.4785 2.18929 16.9626C1.05249 17.708 0.663328 19.3561 1.31973 20.6453L2.1092 22.1884C2.4176 22.8191 2.93505 23.2845 3.54704 23.4816C4.15902 23.6787 4.81509 23.5913 5.37007 23.2388C5.91564 22.878 6.56578 22.7791 7.17597 22.9642C7.78616 23.1492 8.30584 23.6029 8.6195 24.2243C8.82517 24.617 8.93568 25.0643 8.93986 25.521C8.93986 27.0177 10.0105 28.2311 11.3312 28.2311H12.8987C14.2149 28.2311 15.2837 27.0256 15.29 25.5339C15.2869 24.8141 15.5379 24.1228 15.987 23.6138C16.4361 23.1047 17.0461 22.8203 17.6813 22.8238C18.0833 22.836 18.4763 22.9607 18.8254 23.1869C19.9664 23.932 21.4242 23.4914 22.0863 22.2014L22.9101 20.6453C23.229 20.025 23.3165 19.2862 23.1533 18.5926C22.9901 17.8989 22.5896 17.3076 22.0406 16.9497C21.4915 16.5917 21.091 16.0004 20.9278 15.3067C20.7646 14.6131 20.8521 13.8743 21.171 13.254C21.3783 12.8437 21.6785 12.5035 22.0406 12.2685C23.172 11.5185 23.5598 9.87601 22.9101 8.58581V8.57285Z" stroke="#200E32" stroke-width="1.5" stroke-linecap="round" stroke-linejoin="round"/>
<path d="M12.1206 18.3498C13.9403 18.3498 15.4156 16.6779 15.4156 14.6154C15.4156 12.553 13.9403 10.8811 12.1206 10.8811C10.3008 10.8811 8.82556 12.553 8.82556 14.6154C8.82556 16.6779 10.3008 18.3498 12.1206 18.3498Z" stroke="#200E32" stroke-width="1.5" stroke-linecap="round" stroke-linejoin="round"/>
</svg>
