<svg width="39" height="39" viewBox="0 0 39 39" fill="none" xmlns="http://www.w3.org/2000/svg">
<path d="M9.10304 38.409H29.8968C31.2241 38.409 32.3043 37.3291 32.3043 36.0015V8.33291C32.3043 7.00537 31.2241 5.92513 29.8968 5.92513H26.4269C26.3837 4.96857 25.5984 4.20175 24.6312 4.20175H23.038C23.0789 2.18799 21.4497 0.59082 19.4999 0.59082C17.5469 0.59082 15.9209 2.19136 15.9619 4.20175H14.3687C13.4014 4.20175 12.6161 4.96857 12.573 5.92513H9.10304C7.7758 5.92513 6.69556 7.00537 6.69556 8.33291V36.0015C6.69556 37.3291 7.7758 38.409 9.10304 38.409ZM19.4999 1.77264C20.8099 1.77264 21.8931 2.84992 21.8589 4.20175H17.1409C17.1067 2.84992 18.19 1.77264 19.4999 1.77264ZM13.7466 6.00567C13.7466 5.66259 14.026 5.38362 14.3687 5.38362C16.6488 5.38362 22.1387 5.38362 24.6311 5.38362C24.9739 5.38362 25.2532 5.66265 25.2532 6.00567V7.02304C25.2532 7.36612 24.9739 7.64509 24.6311 7.64509H14.3687C14.0259 7.64509 13.7466 7.36607 13.7466 7.02304V6.00567ZM7.87737 8.33291C7.87737 7.65691 8.42733 7.10695 9.10304 7.10695H12.5733C12.6182 8.06186 13.4026 8.82685 14.3687 8.82685H24.6311C25.5972 8.82685 26.3816 8.06186 26.4265 7.10695H29.8968C30.5725 7.10695 31.1224 7.65691 31.1224 8.33291V36.0015C31.1224 36.6772 30.5725 37.2271 29.8968 37.2271H9.10304C8.42727 37.2271 7.87737 36.6772 7.87737 36.0015V8.33291Z" fill="black"/>
<path d="M10.6404 17.46H16.2131C16.3764 17.46 16.5086 17.3279 16.5086 17.1646V11.5916C16.5086 11.4283 16.3764 11.2961 16.2131 11.2961H10.6404C10.4771 11.2961 10.345 11.4283 10.345 11.5916V17.1646C10.345 17.3279 10.4772 17.46 10.6404 17.46ZM10.9359 11.8871H15.9177V16.8692H10.9359V11.8871ZM19.3586 13.4004H28.3596C28.5229 13.4004 28.6551 13.2683 28.6551 13.105C28.6551 12.9416 28.5229 12.8095 28.3596 12.8095H19.3586C19.1953 12.8095 19.0632 12.9416 19.0632 13.105C19.0632 13.2683 19.1954 13.4004 19.3586 13.4004ZM19.3586 15.9467H23.888C24.0513 15.9467 24.1834 15.8146 24.1834 15.6513C24.1834 15.4879 24.0513 15.3558 23.888 15.3558H19.3586C19.1953 15.3558 19.0632 15.4879 19.0632 15.6513C19.0632 15.8146 19.1954 15.9467 19.3586 15.9467ZM10.6404 26.1091H16.2131C16.3764 26.1091 16.5086 25.9769 16.5086 25.8136V20.2406C16.5086 20.0773 16.3764 19.9452 16.2131 19.9452H10.6404C10.4771 19.9452 10.345 20.0773 10.345 20.2406V25.8136C10.345 25.9769 10.4772 26.1091 10.6404 26.1091ZM10.9359 20.5361H15.9177V25.5181H10.9359V20.5361ZM19.3586 22.0494H28.3596C28.5229 22.0494 28.6551 21.9173 28.6551 21.7539C28.6551 21.5906 28.5229 21.4585 28.3596 21.4585H19.3586C19.1953 21.4585 19.0632 21.5906 19.0632 21.7539C19.0632 21.9173 19.1954 22.0494 19.3586 22.0494ZM19.3586 24.5957H23.888C24.0513 24.5957 24.1834 24.4635 24.1834 24.3002C24.1834 24.1369 24.0513 24.0048 23.888 24.0048H19.3586C19.1953 24.0048 19.0632 24.1369 19.0632 24.3002C19.0632 24.4635 19.1954 24.5957 19.3586 24.5957ZM10.6404 34.7597H16.2131C16.3764 34.7597 16.5086 34.6276 16.5086 34.4643V28.8913C16.5086 28.728 16.3764 28.5958 16.2131 28.5958H10.6404C10.4771 28.5958 10.345 28.728 10.345 28.8913V34.4643C10.345 34.6276 10.4772 34.7597 10.6404 34.7597ZM10.9359 29.1868H15.9177V34.1689H10.9359V29.1868ZM19.3586 30.7004H28.3596C28.5229 30.7004 28.6551 30.5683 28.6551 30.405C28.6551 30.2416 28.5229 30.1095 28.3596 30.1095H19.3586C19.1953 30.1095 19.0632 30.2416 19.0632 30.405C19.0632 30.5683 19.1954 30.7004 19.3586 30.7004ZM19.3586 33.2464H23.888C24.0513 33.2464 24.1834 33.1143 24.1834 32.951C24.1834 32.7876 24.0513 32.6555 23.888 32.6555H19.3586C19.1953 32.6555 19.0632 32.7876 19.0632 32.951C19.0632 33.1143 19.1954 33.2464 19.3586 33.2464Z" fill="black"/>
<path d="M14.4738 30.6229L12.9907 32.1062L12.3796 31.4954C12.2642 31.38 12.0772 31.38 11.9618 31.4954C11.8464 31.6108 11.8464 31.7978 11.9618 31.9132L12.7818 32.7329C12.8395 32.7906 12.9151 32.8195 12.9907 32.8195C13.0663 32.8195 13.1419 32.7906 13.1996 32.7329L14.8915 31.0407C15.0069 30.9253 15.0069 30.7383 14.8915 30.6229C14.7761 30.5075 14.5892 30.5075 14.4738 30.6229ZM14.4738 21.9722L12.9907 23.4556L12.3796 22.8445C12.2642 22.729 12.0772 22.729 11.9618 22.8445C11.8464 22.9599 11.8464 23.1468 11.9618 23.2622L12.7818 24.0822C12.8372 24.1377 12.9122 24.1688 12.9907 24.1688C13.0692 24.1688 13.1442 24.1377 13.1996 24.0822L14.8915 22.39C15.0069 22.2746 15.0069 22.0876 14.8915 21.9722C14.7761 21.8568 14.5892 21.8568 14.4738 21.9722ZM14.5759 13.2289C14.4605 13.1135 14.2736 13.1135 14.1581 13.2289L13.4267 13.9603L12.6953 13.2289C12.5799 13.1135 12.3929 13.1135 12.2775 13.2289C12.1621 13.3443 12.1621 13.5313 12.2775 13.6467L13.0089 14.3781L12.2775 15.1095C12.1621 15.2249 12.1621 15.4119 12.2775 15.5273C12.3353 15.585 12.4108 15.6139 12.4864 15.6139C12.562 15.6139 12.6376 15.585 12.6953 15.5273L13.4267 14.7959L14.1581 15.5273C14.2159 15.585 14.2915 15.6139 14.367 15.6139C14.4426 15.6139 14.5182 15.585 14.5759 15.5273C14.6913 15.4119 14.6913 15.2249 14.5759 15.1095L13.8445 14.3781L14.5759 13.6467C14.6913 13.5313 14.6913 13.3443 14.5759 13.2289Z" fill="black"/>
</svg>
