<svg width="21" height="24" viewBox="0 0 21 24" fill="none" xmlns="http://www.w3.org/2000/svg">
<g clip-path="url(#clip0_96_185)">
<path d="M10.5013 24.0001C7.81146 24.0001 5.12164 22.952 3.07399 20.8557C-0.0653656 17.6409 -0.891254 12.7247 1.01943 8.62204C1.19745 8.23881 1.64616 8.07529 2.01927 8.2592C2.3936 8.44145 2.55252 8.89999 2.37369 9.2828C0.736543 12.8001 1.44416 17.0143 4.1352 19.7692C7.64523 23.3635 13.3574 23.3635 16.8674 19.7692C20.3778 16.1758 20.3778 10.3289 16.8674 6.73504C14.1771 3.98049 10.0607 3.25606 6.62344 4.9321C6.25073 5.11435 5.80202 4.95207 5.62318 4.56885C5.44516 4.18604 5.60367 3.7275 5.97801 3.54483C9.98592 1.59001 14.7888 2.43552 17.9286 5.64861C22.0235 9.84161 22.0235 16.6635 17.9286 20.8561C15.8809 22.952 13.1911 24.0001 10.5013 24.0001Z" fill="#44444D"/>
<path d="M8.18617 8.57566C8.11058 8.57566 8.03416 8.56401 7.95816 8.53904L2.64557 6.80476C2.25051 6.67577 2.03265 6.24344 2.15865 5.83983L3.81002 0.535021C3.93602 0.130992 4.3575 -0.0924516 4.75256 0.0365381C5.14762 0.165528 5.36547 0.597435 5.23948 1.00146L3.81612 5.57394L8.41419 7.07522C8.80925 7.20421 9.0271 7.63653 8.9011 8.04014C8.79909 8.3672 8.50401 8.57566 8.18617 8.57566Z" fill="#44444D"/>
</g>
<defs>
<clipPath id="clip0_96_185">
<rect width="21" height="24" fill="white"/>
</clipPath>
</defs>
</svg>
