<svg width="35" height="33" viewBox="0 0 35 33" fill="none" xmlns="http://www.w3.org/2000/svg">
<path d="M29.4686 8.66631L30.1234 8.01985L30.4269 8.31938C30.6771 8.56646 31.0063 8.69169 31.3354 8.69169C31.6646 8.69169 31.9937 8.56815 32.244 8.31938C32.7463 7.82354 32.7463 7.01969 32.244 6.52385L29.82 4.13092C29.3177 3.63508 28.5034 3.63508 28.0011 4.13092C27.4989 4.62677 27.4989 5.43062 28.0011 5.92646L28.3046 6.226L27.6497 6.87246C25.3474 4.95677 22.4571 3.71631 19.2857 3.44892V2.53846H19.7143C20.424 2.53846 21 1.96985 21 1.26923C21 0.568615 20.424 0 19.7143 0H16.2857C15.576 0 15 0.568615 15 1.26923C15 1.96985 15.576 2.53846 16.2857 2.53846H16.7143V3.44892C9.04286 4.09539 3 10.4551 3 18.1923C3 26.3577 9.72857 33 18 33C26.2714 33 33 26.3577 33 18.1923C33 14.5657 31.6697 11.2437 29.4686 8.66631ZM18.0017 30.4615C11.148 30.4615 5.57314 24.9582 5.57314 18.1923C5.57314 11.4265 11.148 5.92308 18.0017 5.92308C24.8554 5.92308 30.4303 11.4265 30.4303 18.1923C30.4303 24.9582 24.8554 30.4615 18.0017 30.4615ZM24.8589 19.4615H18.0017C17.292 19.4615 16.716 18.8929 16.716 18.1923V11.4231C16.716 10.7225 17.292 10.1538 18.0017 10.1538C18.7114 10.1538 19.2874 10.7225 19.2874 11.4231V16.9231H24.8589C25.5686 16.9231 26.1446 17.4917 26.1446 18.1923C26.1446 18.8929 25.5686 19.4615 24.8589 19.4615Z" fill="black"/>
</svg>
