<svg width="36" height="28" viewBox="0 0 36 28" fill="none" xmlns="http://www.w3.org/2000/svg">
<path d="M26.8445 8.80412C26.8225 12.0333 24.526 15.042 21.0812 16.1573C17.556 17.2985 13.57 16.3389 11.1711 13.7841C8.80148 11.2617 8.52356 7.55914 10.4251 4.76441C12.3267 1.95671 16.1372 0.458838 19.7648 1.12024C23.3631 1.77515 26.1643 4.38183 26.7494 7.59156C26.8152 7.99359 26.8445 8.4021 26.8445 8.80412C26.8518 9.42661 27.9488 9.4331 27.9415 8.80412C27.9196 5.12753 25.3086 1.80757 21.4177 0.530165C17.5414 -0.747241 12.9923 0.342121 10.3593 3.16927C7.6971 6.03533 7.30948 10.1853 9.49628 13.3755C11.6612 16.5204 15.8812 18.148 19.9476 17.4477C23.9555 16.7539 27.1955 13.7711 27.8099 10.1918C27.8903 9.73138 27.9342 9.27099 27.9342 8.81061C27.9488 8.18163 26.8518 8.18163 26.8445 8.80412ZM0.939211 27.8615C4.55951 24.7166 9.12328 22.4925 14.1405 21.7403C18.8579 21.0335 23.78 21.7014 28.0878 23.53C30.6622 24.6258 33.01 26.0977 35.0578 27.8615C35.5624 28.2959 36.345 27.6086 35.8331 27.1741C32.0957 23.9709 27.3784 21.6625 22.2368 20.8455C17.2781 20.0544 12.1585 20.6639 7.5874 22.5508C4.83743 23.6921 2.33614 25.2872 0.163955 27.1741C-0.340693 27.6086 0.434563 28.2959 0.939211 27.8615Z" fill="black"/>
</svg>
